<svg version="1" xmlns="http://www.w3.org/2000/svg" width="682.667" height="682.667" viewBox="0 0 512.000000 512.000000"><path d="M242 31.5c-3 .8-8.4 3-12 4.7-5.9 2.9-15.6 12.3-111.8 108.2C59 203.5 11.3 251.9 9.3 254.9 3 264.4.6 272.8.5 285.5c0 12 1.2 17.1 6.8 28 2.6 5.1 14.2 17.2 79.1 82.1 70.1 70.1 76.7 76.4 83.2 79.7 13.1 6.7 12.5 6.7 86.4 6.7s73.3 0 86.4-6.7c6.5-3.3 13.2-9.7 83.2-79.7l76.2-76.1 4-8.5c8.4-17.6 8.2-34.4-.5-51.4-3.4-6.6-11.2-14.7-108.2-111.9C339.6 90.1 290.2 41.3 287.3 39.4c-9.2-6.1-17.4-8.6-29.3-9-7.3-.3-12.2.1-16 1.1zm17.8 99.9c1.5.8 9.3 8.1 17.5 16.3 13.2 13.4 14.7 15.3 14.7 18.4 0 3.2-4.6 8-72.3 75.7L147.5 314h-10.3c-5.7 0-11.3-.5-12.5-1.1-3.2-1.6-21.6-19.9-23.3-23.2-.9-1.7-1.3-4-.9-5.6.4-1.8 23.9-25.9 75.8-77.8 41.4-41.3 75.9-75.3 76.7-75.6 2.5-.9 4-.8 6.8.7zm16 134.9C290.4 281 292 283 292 286.1c0 3.1-3 6.4-41.8 45.1L208.5 373h-25l-11.7-11.9c-10.4-10.4-11.8-12.2-11.8-15.2 0-3.1 3.6-7 46.2-49.6 43.7-43.7 46.5-46.3 49.8-46.3 3.3 0 4.9 1.3 19.8 16.3zm-16 104.1c1.5.8 9.3 8.1 17.5 16.3 19.1 19.4 19 17.5 2.5 34L267.5 433h-23.8l-11.9-11.8c-16.3-16.4-16.5-14.8 3.5-35 17.7-17.9 18.9-18.7 24.5-15.8z"/></svg>