<svg xmlns="http://www.w3.org/2000/svg" viewBox="0 0 612 612"><g fill="#FFF"><path d="M587.572 186.881c-32.266-75.225-87.096-129.934-162.956-162.285C386.711 8.427 346.985.168 305.497.168s-80.914 8.181-118.784 24.428C111.488 56.861 56.415 111.535 24.092 186.881 7.895 224.629 0 264.176 0 305.664c0 41.496 7.895 81.371 24.092 119.127 32.323 75.346 87.396 130.348 162.621 162.621 37.87 16.247 77.295 24.42 118.784 24.42 41.489 0 81.214-8.259 119.12-24.42 75.86-32.352 130.69-87.403 162.956-162.621C603.819 386.914 612 347.16 612 305.664c0-41.488-8.181-80.907-24.428-118.783zm-48.855 253.972c-24.014 41.195-56.922 73.876-98.375 98.039-41.196 24.021-86.325 36.135-134.845 36.135-36.47 0-71.27-7.024-104.399-21.415-33.123-14.384-61.733-33.294-85.662-57.215-23.921-23.928-42.966-52.811-57.214-85.997-14.198-33.065-21.08-68.258-21.08-104.735 0-48.52 11.921-93.428 35.799-134.509 23.971-41.231 56.886-73.947 98.04-98.04 41.16-24.092 85.997-36.142 134.517-36.142s93.649 12.121 134.845 36.142c41.453 24.164 74.283 56.879 98.375 98.04 24.092 41.153 36.142 85.99 36.142 134.509-.002 48.52-11.972 93.734-36.143 135.188z"/><path d="M270.026 128.995c-7.603-7.795-19.402-7.367-26.098-.671-7.695 7.695-7.274 18.981-.671 25.763l149.571 153.591-149.571 149.564c-7.21 7.217-6.689 19.074 0 25.77 3.683 3.677 8.366 5.689 13.72 5.689 5.019 0 9.366-2.021 13.049-5.689l162.286-161.621c7.23-7.195 6.609-19.324 0-26.098L270.026 128.995z"/></g></svg>