<svg xmlns="http://www.w3.org/2000/svg" viewBox="0 0 612 612"><path d="M306 0C136.992 0 0 136.992 0 306s136.992 306 306 306c168.988 0 306-136.992 306-306S475.008 0 306 0zm0 573.75C158.125 573.75 38.25 453.875 38.25 306S158.125 38.25 306 38.25 573.75 158.125 573.75 306 453.875 573.75 306 573.75zm128.425-396.174c-7.287-7.287-19.125-7.287-26.412 0L306 279.588 203.987 177.576c-7.287-7.287-19.125-7.287-26.412 0s-7.287 19.125 0 26.412L279.588 306 177.595 408.013c-7.287 7.287-7.287 19.125 0 26.412 7.287 7.286 19.125 7.286 26.412 0L306 332.412l102.013 102.013c7.287 7.286 19.125 7.286 26.412 0 7.286-7.287 7.286-19.125 0-26.412L332.412 306l102.013-102.013c7.286-7.286 7.286-19.106 0-26.411z" fill="#FFF"/></svg>